G75*
%MOIN*%
%OFA0B0*%
%FSLAX25Y25*%
%IPPOS*%
%LPD*%
%AMOC8*
5,1,8,0,0,1.08239X$1,22.5*
%
%ADD10C,0.00300*%
%ADD11C,0.00600*%
%ADD12R,0.12000X0.00334*%
%ADD13R,0.01340X0.00334*%
%ADD14R,0.02000X0.00334*%
%ADD15R,0.12670X0.00333*%
%ADD16R,0.01340X0.00333*%
%ADD17R,0.02000X0.00333*%
%ADD18R,0.01670X0.00333*%
%ADD19R,0.01330X0.00334*%
%ADD20R,0.03000X0.00334*%
%ADD21R,0.02340X0.00334*%
%ADD22R,0.01330X0.00333*%
%ADD23R,0.03000X0.00333*%
%ADD24R,0.02330X0.00333*%
%ADD25R,0.05660X0.00333*%
%ADD26R,0.07670X0.00333*%
%ADD27R,0.14000X0.00334*%
%ADD28R,0.03670X0.00334*%
%ADD29R,0.06000X0.00333*%
%ADD30R,0.07340X0.00333*%
%ADD31R,0.03670X0.00333*%
%ADD32R,0.05330X0.00333*%
%ADD33R,0.06330X0.00333*%
%ADD34R,0.11340X0.00333*%
%ADD35R,0.06000X0.00334*%
%ADD36R,0.11340X0.00334*%
%ADD37R,0.04330X0.00333*%
%ADD38C,0.00800*%
%ADD39C,0.00500*%
%ADD40R,0.05512X0.02559*%
D10*
X0013855Y0008038D02*
X0014472Y0007420D01*
X0015706Y0007420D01*
X0016323Y0008038D01*
X0016323Y0009272D01*
X0015089Y0009272D01*
X0013855Y0010506D02*
X0013855Y0008038D01*
X0017538Y0007420D02*
X0017538Y0011123D01*
X0020007Y0007420D01*
X0020007Y0011123D01*
X0021221Y0011123D02*
X0023073Y0011123D01*
X0023690Y0010506D01*
X0023690Y0008038D01*
X0023073Y0007420D01*
X0021221Y0007420D01*
X0021221Y0011123D01*
X0016323Y0010506D02*
X0015706Y0011123D01*
X0014472Y0011123D01*
X0013855Y0010506D01*
X0015089Y0017657D02*
X0016323Y0018891D01*
X0016323Y0021360D01*
X0017538Y0020743D02*
X0017538Y0018274D01*
X0018155Y0017657D01*
X0019389Y0017657D01*
X0020007Y0018274D01*
X0020007Y0020743D01*
X0019389Y0021360D01*
X0018155Y0021360D01*
X0017538Y0020743D01*
X0021221Y0021360D02*
X0021221Y0017657D01*
X0023690Y0017657D01*
X0015089Y0017657D02*
X0013855Y0018891D01*
X0013855Y0021360D01*
X0013855Y0027893D02*
X0013855Y0030362D01*
X0015089Y0031596D01*
X0016323Y0030362D01*
X0016323Y0027893D01*
X0017538Y0028510D02*
X0018155Y0027893D01*
X0019389Y0027893D01*
X0020007Y0028510D01*
X0020007Y0031596D01*
X0021221Y0031596D02*
X0023073Y0031596D01*
X0023690Y0030979D01*
X0023690Y0028510D01*
X0023073Y0027893D01*
X0021221Y0027893D01*
X0021221Y0031596D01*
X0017538Y0031596D02*
X0017538Y0028510D01*
X0016323Y0029744D02*
X0013855Y0029744D01*
X0015089Y0038129D02*
X0016323Y0039363D01*
X0016323Y0041832D01*
X0017538Y0041215D02*
X0017538Y0038746D01*
X0018155Y0038129D01*
X0019389Y0038129D01*
X0020007Y0038746D01*
X0021221Y0038746D02*
X0021838Y0038129D01*
X0023073Y0038129D01*
X0023690Y0038746D01*
X0021221Y0038746D02*
X0021221Y0041215D01*
X0021838Y0041832D01*
X0023073Y0041832D01*
X0023690Y0041215D01*
X0020007Y0041215D02*
X0019389Y0041832D01*
X0018155Y0041832D01*
X0017538Y0041215D01*
X0013855Y0041832D02*
X0013855Y0039363D01*
X0015089Y0038129D01*
X0029603Y0041459D02*
X0030570Y0040491D01*
X0031538Y0041459D01*
X0031538Y0043394D01*
X0032549Y0042426D02*
X0033517Y0043394D01*
X0033517Y0040491D01*
X0034484Y0040491D02*
X0032549Y0040491D01*
X0029603Y0041459D02*
X0029603Y0043394D01*
X0035496Y0040975D02*
X0035496Y0040491D01*
X0035980Y0040491D01*
X0035980Y0040975D01*
X0035496Y0040975D01*
X0036969Y0040975D02*
X0038904Y0042910D01*
X0038904Y0040975D01*
X0038420Y0040491D01*
X0037453Y0040491D01*
X0036969Y0040975D01*
X0036969Y0042910D01*
X0037453Y0043394D01*
X0038420Y0043394D01*
X0038904Y0042910D01*
X0039318Y0037369D02*
X0036181Y0034233D01*
X0037749Y0034233D02*
X0037749Y0037369D01*
X0036181Y0037369D02*
X0039318Y0034233D01*
X0039318Y0035801D02*
X0036181Y0035801D01*
X0036042Y0007974D02*
X0037893Y0007974D01*
X0038511Y0007357D01*
X0038511Y0004888D01*
X0037893Y0004271D01*
X0036042Y0004271D01*
X0036042Y0007974D01*
X0034827Y0007974D02*
X0032359Y0007974D01*
X0033593Y0007974D02*
X0033593Y0004271D01*
X0039725Y0004271D02*
X0039725Y0006740D01*
X0040959Y0007974D01*
X0042194Y0006740D01*
X0042194Y0004271D01*
X0043408Y0004271D02*
X0043408Y0004888D01*
X0045877Y0007357D01*
X0045877Y0007974D01*
X0043408Y0007974D01*
X0042194Y0006122D02*
X0039725Y0006122D01*
X0047091Y0004888D02*
X0047708Y0004271D01*
X0048943Y0004271D01*
X0049560Y0004888D01*
X0049560Y0007357D01*
X0047091Y0004888D01*
X0047091Y0007357D01*
X0047708Y0007974D01*
X0048943Y0007974D01*
X0049560Y0007357D01*
X0050774Y0007974D02*
X0050774Y0006122D01*
X0052009Y0006740D01*
X0052626Y0006740D01*
X0053243Y0006122D01*
X0053243Y0004888D01*
X0052626Y0004271D01*
X0051392Y0004271D01*
X0050774Y0004888D01*
X0054458Y0004271D02*
X0056926Y0006740D01*
X0056926Y0007357D01*
X0056309Y0007974D01*
X0055075Y0007974D01*
X0054458Y0007357D01*
X0053243Y0007974D02*
X0050774Y0007974D01*
X0054458Y0004271D02*
X0056926Y0004271D01*
X0058141Y0004271D02*
X0058141Y0006740D01*
X0059375Y0007974D01*
X0060609Y0006740D01*
X0060609Y0004271D01*
X0061824Y0003654D02*
X0064293Y0003654D01*
X0065507Y0004271D02*
X0065507Y0006740D01*
X0066741Y0007974D01*
X0067976Y0006740D01*
X0067976Y0004271D01*
X0070424Y0004271D02*
X0070424Y0007974D01*
X0069190Y0007974D02*
X0071659Y0007974D01*
X0067976Y0006122D02*
X0065507Y0006122D01*
X0060609Y0006122D02*
X0058141Y0006122D01*
D11*
X0056131Y0014399D02*
X0042931Y0014399D01*
X0042931Y0033999D02*
X0048331Y0033999D01*
X0050731Y0033999D01*
X0056131Y0033999D01*
X0050731Y0033999D02*
X0050729Y0033930D01*
X0050723Y0033862D01*
X0050713Y0033794D01*
X0050700Y0033727D01*
X0050682Y0033661D01*
X0050661Y0033596D01*
X0050636Y0033532D01*
X0050608Y0033470D01*
X0050576Y0033409D01*
X0050541Y0033350D01*
X0050502Y0033294D01*
X0050460Y0033239D01*
X0050415Y0033188D01*
X0050367Y0033138D01*
X0050317Y0033092D01*
X0050264Y0033049D01*
X0050208Y0033008D01*
X0050151Y0032971D01*
X0050091Y0032938D01*
X0050029Y0032907D01*
X0049966Y0032881D01*
X0049902Y0032858D01*
X0049836Y0032838D01*
X0049769Y0032823D01*
X0049702Y0032811D01*
X0049634Y0032803D01*
X0049565Y0032799D01*
X0049497Y0032799D01*
X0049428Y0032803D01*
X0049360Y0032811D01*
X0049293Y0032823D01*
X0049226Y0032838D01*
X0049160Y0032858D01*
X0049096Y0032881D01*
X0049033Y0032907D01*
X0048971Y0032938D01*
X0048911Y0032971D01*
X0048854Y0033008D01*
X0048798Y0033049D01*
X0048745Y0033092D01*
X0048695Y0033138D01*
X0048647Y0033188D01*
X0048602Y0033239D01*
X0048560Y0033294D01*
X0048521Y0033350D01*
X0048486Y0033409D01*
X0048454Y0033470D01*
X0048426Y0033532D01*
X0048401Y0033596D01*
X0048380Y0033661D01*
X0048362Y0033727D01*
X0048349Y0033794D01*
X0048339Y0033862D01*
X0048333Y0033930D01*
X0048331Y0033999D01*
X0086580Y0039854D02*
X0086580Y0044124D01*
X0086580Y0007904D02*
X0086580Y0003633D01*
X0084445Y0005768D02*
X0088715Y0005768D01*
D12*
X0070330Y0039421D03*
D13*
X0071660Y0042421D03*
X0077660Y0039421D03*
X0081660Y0042421D03*
X0064660Y0040421D03*
D14*
X0081330Y0039421D03*
D15*
X0070325Y0039755D03*
X0070325Y0040088D03*
D16*
X0077660Y0040088D03*
X0077660Y0039755D03*
X0081660Y0042755D03*
D17*
X0079660Y0041088D03*
X0080990Y0039755D03*
D18*
X0080495Y0040088D03*
D19*
X0070995Y0040421D03*
X0069995Y0042421D03*
D20*
X0076830Y0040421D03*
D21*
X0080160Y0040421D03*
X0077160Y0042421D03*
D22*
X0070995Y0040755D03*
X0064995Y0040755D03*
D23*
X0076830Y0040755D03*
D24*
X0079825Y0040755D03*
D25*
X0067160Y0041088D03*
D26*
X0074495Y0041088D03*
X0074825Y0042755D03*
D27*
X0071330Y0041421D03*
D28*
X0080495Y0041421D03*
D29*
X0067660Y0041755D03*
D30*
X0074660Y0041755D03*
X0074660Y0042088D03*
D31*
X0080495Y0042088D03*
X0080495Y0041755D03*
D32*
X0067995Y0042088D03*
D33*
X0067495Y0042755D03*
X0067495Y0043088D03*
D34*
X0076660Y0043088D03*
D35*
X0067660Y0043421D03*
D36*
X0076660Y0043421D03*
D37*
X0079495Y0043755D03*
D38*
X0005063Y0004199D02*
X0002563Y0006699D01*
X0002563Y0011699D01*
X0005063Y0014199D01*
X0002563Y0016699D01*
X0002563Y0021699D01*
X0005063Y0024199D01*
X0002563Y0026699D01*
X0002563Y0031699D01*
X0005063Y0034199D01*
X0002563Y0036699D01*
X0002563Y0041699D01*
X0005063Y0044199D01*
X0010063Y0044199D01*
X0012563Y0041699D01*
X0012563Y0036699D01*
X0010063Y0034199D01*
X0012563Y0031699D01*
X0012563Y0026699D01*
X0010063Y0024199D01*
X0012563Y0021699D01*
X0012563Y0016699D01*
X0010063Y0014199D01*
X0012563Y0011699D01*
X0012563Y0006699D01*
X0010063Y0004199D01*
X0005063Y0004199D01*
D39*
X0065358Y0010026D02*
X0070870Y0010026D01*
X0070870Y0037585D01*
X0065358Y0037585D01*
X0065358Y0010026D01*
X0070870Y0010026D02*
X0092917Y0010026D01*
X0092917Y0037585D01*
X0070870Y0037585D01*
D40*
X0027045Y0015110D03*
X0027045Y0009310D03*
M02*
