G75*
%MOIN*%
%OFA0B0*%
%FSLAX25Y25*%
%IPPOS*%
%LPD*%
%AMOC8*
5,1,8,0,0,1.08239X$1,22.5*
%
%ADD10C,0.00000*%
D10*
X0005437Y0001759D02*
X0089689Y0001759D01*
X0089813Y0001761D01*
X0089936Y0001767D01*
X0090060Y0001776D01*
X0090182Y0001790D01*
X0090305Y0001807D01*
X0090427Y0001829D01*
X0090548Y0001854D01*
X0090668Y0001883D01*
X0090787Y0001915D01*
X0090906Y0001952D01*
X0091023Y0001992D01*
X0091138Y0002035D01*
X0091253Y0002083D01*
X0091365Y0002134D01*
X0091476Y0002188D01*
X0091586Y0002246D01*
X0091693Y0002307D01*
X0091799Y0002372D01*
X0091902Y0002440D01*
X0092003Y0002511D01*
X0092102Y0002585D01*
X0092199Y0002662D01*
X0092293Y0002743D01*
X0092384Y0002826D01*
X0092473Y0002912D01*
X0092559Y0003001D01*
X0092642Y0003092D01*
X0092723Y0003186D01*
X0092800Y0003283D01*
X0092874Y0003382D01*
X0092945Y0003483D01*
X0093013Y0003586D01*
X0093078Y0003692D01*
X0093139Y0003799D01*
X0093197Y0003909D01*
X0093251Y0004020D01*
X0093302Y0004132D01*
X0093350Y0004247D01*
X0093393Y0004362D01*
X0093433Y0004479D01*
X0093470Y0004598D01*
X0093502Y0004717D01*
X0093531Y0004837D01*
X0093556Y0004958D01*
X0093578Y0005080D01*
X0093595Y0005203D01*
X0093609Y0005325D01*
X0093618Y0005449D01*
X0093624Y0005572D01*
X0093626Y0005696D01*
X0093626Y0042703D01*
X0093624Y0042827D01*
X0093618Y0042950D01*
X0093609Y0043074D01*
X0093595Y0043196D01*
X0093578Y0043319D01*
X0093556Y0043441D01*
X0093531Y0043562D01*
X0093502Y0043682D01*
X0093470Y0043801D01*
X0093433Y0043920D01*
X0093393Y0044037D01*
X0093350Y0044152D01*
X0093302Y0044267D01*
X0093251Y0044379D01*
X0093197Y0044490D01*
X0093139Y0044600D01*
X0093078Y0044707D01*
X0093013Y0044813D01*
X0092945Y0044916D01*
X0092874Y0045017D01*
X0092800Y0045116D01*
X0092723Y0045213D01*
X0092642Y0045307D01*
X0092559Y0045398D01*
X0092473Y0045487D01*
X0092384Y0045573D01*
X0092293Y0045656D01*
X0092199Y0045737D01*
X0092102Y0045814D01*
X0092003Y0045888D01*
X0091902Y0045959D01*
X0091799Y0046027D01*
X0091693Y0046092D01*
X0091586Y0046153D01*
X0091476Y0046211D01*
X0091365Y0046265D01*
X0091253Y0046316D01*
X0091138Y0046364D01*
X0091023Y0046407D01*
X0090906Y0046447D01*
X0090787Y0046484D01*
X0090668Y0046516D01*
X0090548Y0046545D01*
X0090427Y0046570D01*
X0090305Y0046592D01*
X0090182Y0046609D01*
X0090060Y0046623D01*
X0089936Y0046632D01*
X0089813Y0046638D01*
X0089689Y0046640D01*
X0005437Y0046640D01*
X0005313Y0046638D01*
X0005190Y0046632D01*
X0005066Y0046623D01*
X0004944Y0046609D01*
X0004821Y0046592D01*
X0004699Y0046570D01*
X0004578Y0046545D01*
X0004458Y0046516D01*
X0004339Y0046484D01*
X0004220Y0046447D01*
X0004103Y0046407D01*
X0003988Y0046364D01*
X0003873Y0046316D01*
X0003761Y0046265D01*
X0003650Y0046211D01*
X0003540Y0046153D01*
X0003433Y0046092D01*
X0003327Y0046027D01*
X0003224Y0045959D01*
X0003123Y0045888D01*
X0003024Y0045814D01*
X0002927Y0045737D01*
X0002833Y0045656D01*
X0002742Y0045573D01*
X0002653Y0045487D01*
X0002567Y0045398D01*
X0002484Y0045307D01*
X0002403Y0045213D01*
X0002326Y0045116D01*
X0002252Y0045017D01*
X0002181Y0044916D01*
X0002113Y0044813D01*
X0002048Y0044707D01*
X0001987Y0044600D01*
X0001929Y0044490D01*
X0001875Y0044379D01*
X0001824Y0044267D01*
X0001776Y0044152D01*
X0001733Y0044037D01*
X0001693Y0043920D01*
X0001656Y0043801D01*
X0001624Y0043682D01*
X0001595Y0043562D01*
X0001570Y0043441D01*
X0001548Y0043319D01*
X0001531Y0043196D01*
X0001517Y0043074D01*
X0001508Y0042950D01*
X0001502Y0042827D01*
X0001500Y0042703D01*
X0001500Y0005696D01*
X0001502Y0005572D01*
X0001508Y0005449D01*
X0001517Y0005325D01*
X0001531Y0005203D01*
X0001548Y0005080D01*
X0001570Y0004958D01*
X0001595Y0004837D01*
X0001624Y0004717D01*
X0001656Y0004598D01*
X0001693Y0004479D01*
X0001733Y0004362D01*
X0001776Y0004247D01*
X0001824Y0004132D01*
X0001875Y0004020D01*
X0001929Y0003909D01*
X0001987Y0003799D01*
X0002048Y0003692D01*
X0002113Y0003586D01*
X0002181Y0003483D01*
X0002252Y0003382D01*
X0002326Y0003283D01*
X0002403Y0003186D01*
X0002484Y0003092D01*
X0002567Y0003001D01*
X0002653Y0002912D01*
X0002742Y0002826D01*
X0002833Y0002743D01*
X0002927Y0002662D01*
X0003024Y0002585D01*
X0003123Y0002511D01*
X0003224Y0002440D01*
X0003327Y0002372D01*
X0003433Y0002307D01*
X0003540Y0002246D01*
X0003650Y0002188D01*
X0003761Y0002134D01*
X0003873Y0002083D01*
X0003988Y0002035D01*
X0004103Y0001992D01*
X0004220Y0001952D01*
X0004339Y0001915D01*
X0004458Y0001883D01*
X0004578Y0001854D01*
X0004699Y0001829D01*
X0004821Y0001807D01*
X0004944Y0001790D01*
X0005066Y0001776D01*
X0005190Y0001767D01*
X0005313Y0001761D01*
X0005437Y0001759D01*
M02*
