G75*
%MOIN*%
%OFA0B0*%
%FSLAX25Y25*%
%IPPOS*%
%LPD*%
%AMOC8*
5,1,8,0,0,1.08239X$1,22.5*
%
%ADD10R,0.04734X0.04852*%
%ADD11R,0.06112X0.04931*%
%ADD12C,0.07600*%
%ADD13C,0.09200*%
%ADD14R,0.07300X0.02700*%
%ADD15C,0.00500*%
D10*
X0039472Y0010774D03*
X0046362Y0010774D03*
X0048764Y0040302D03*
X0054512Y0040302D03*
X0061402Y0040302D03*
X0041874Y0040302D03*
D11*
X0027051Y0032428D03*
X0027051Y0024554D03*
X0027051Y0016168D03*
X0027051Y0008294D03*
D12*
X0007563Y0009199D03*
X0007563Y0019199D03*
X0007563Y0029199D03*
X0007563Y0039199D03*
D13*
X0079531Y0030892D03*
X0079531Y0017113D03*
D14*
X0059731Y0016699D03*
X0059731Y0021699D03*
X0059731Y0026699D03*
X0059731Y0031699D03*
X0039331Y0031699D03*
X0039331Y0026699D03*
X0039331Y0021699D03*
X0039331Y0016699D03*
D15*
X0066914Y0023516D02*
X0067092Y0022853D01*
X0067382Y0022231D01*
X0067775Y0021669D01*
X0068261Y0021184D01*
X0068823Y0020790D01*
X0069445Y0020500D01*
X0070108Y0020322D01*
X0070791Y0020262D01*
X0071475Y0020322D01*
X0072138Y0020500D01*
X0072760Y0020790D01*
X0073322Y0021184D01*
X0073807Y0021669D01*
X0074201Y0022231D01*
X0074491Y0022853D01*
X0074669Y0023516D01*
X0074728Y0024199D01*
X0074669Y0024883D01*
X0074491Y0025546D01*
X0074201Y0026168D01*
X0073807Y0026730D01*
X0073322Y0027215D01*
X0072760Y0027609D01*
X0072138Y0027899D01*
X0071475Y0028077D01*
X0070791Y0028136D01*
X0070108Y0028077D01*
X0069445Y0027899D01*
X0068823Y0027609D01*
X0068261Y0027215D01*
X0067775Y0026730D01*
X0067382Y0026168D01*
X0067092Y0025546D01*
X0066914Y0024883D01*
X0066854Y0024199D01*
X0066914Y0023516D01*
X0066899Y0023693D02*
X0074684Y0023693D01*
X0074728Y0024192D02*
X0066855Y0024192D01*
X0066897Y0024690D02*
X0074685Y0024690D01*
X0074587Y0025189D02*
X0066996Y0025189D01*
X0067158Y0025687D02*
X0074425Y0025687D01*
X0074189Y0026186D02*
X0067394Y0026186D01*
X0067743Y0026684D02*
X0073840Y0026684D01*
X0073355Y0027183D02*
X0068228Y0027183D01*
X0068977Y0027681D02*
X0072605Y0027681D01*
X0074582Y0023195D02*
X0067000Y0023195D01*
X0067165Y0022696D02*
X0074418Y0022696D01*
X0074177Y0022197D02*
X0067405Y0022197D01*
X0067754Y0021699D02*
X0073828Y0021699D01*
X0073339Y0021200D02*
X0068244Y0021200D01*
X0069011Y0020702D02*
X0072571Y0020702D01*
M02*
